<svg width="32" height="32" viewBox="0 0 32 32" fill="none" xmlns="http://www.w3.org/2000/svg">
<path d="M0.388528 9.10106L15.1832 0.227862C15.6899 -0.076058 16.323 -0.075946 16.8296 0.22815L31.6117 9.10103C31.8526 9.24562 32 9.50599 32 9.78695V30.1341C32 31.0178 31.2837 31.7341 30.4 31.7341H1.6C0.716352 31.7341 0 31.0178 0 30.1341V9.78714C0 9.50607 0.147488 9.24564 0.388528 9.10106ZM3.2 11.1463V28.5341H28.8V11.1455L16.0059 3.46589L3.2 11.1463ZM16.0955 20.0514L24.569 12.9106L26.631 15.3576L16.1184 24.2168L5.38242 15.3688L7.41758 12.8994L16.0955 20.0514Z" fill="white"/>
</svg>
